<svg xmlns="http://www.w3.org/2000/svg" viewBox="0 0 1957.75 1370.21"><defs><style>.cls-1{fill:#71d5bb;}.cls-2{fill:#55a08c;}</style></defs><title>Asset 3</title><g id="Layer_2" data-name="Layer 2"><g id="Layer_3" data-name="Layer 3"><path class="cls-1" d="M620.82,1283.07,414.39,775.46a2,2,0,0,0-1.85-1.24,2,2,0,0,0-.55.07l-.25.09L14.6,946.09,383.34,668.42a2,2,0,0,0,.74-2.08L221.25,5.17l821.9,489.55L1116,727.54a2,2,0,0,0,1,1.2l.21.09,53.57,19.67a2.09,2.09,0,0,0,.69.12,2,2,0,0,0,1.51-.69L1773.1,53.63,1465.89,788.41a2,2,0,0,0,.54,2.28l486,420H962.57a2,2,0,0,0-1.06.3l-250.62,155.8a1.8,1.8,0,0,0-.4.33l-.28.29Z"/><path class="cls-1" d="M224.33,9.33,1041.46,496l72.6,232.1a4,4,0,0,0,2.44,2.56l53.57,19.67a3.91,3.91,0,0,0,1.38.25,4,4,0,0,0,3-1.39L1766.42,64.41,1464.05,787.64a4,4,0,0,0,1.07,4.57L1947,1208.66H962.57a4,4,0,0,0-2.11.6L710.34,1364.75l-87.83-82.84L416.24,774.71a4,4,0,0,0-2.19-2.2,4.19,4.19,0,0,0-1.52-.29,4,4,0,0,0-1.59.33l-381.73,165L384.54,670a4,4,0,0,0,1.48-4.15L224.33,9.33M218.16,1l164,665.82L0,954.58,412.53,776.22h0l206.59,508,91.17,86,1.64-1.75,250.63-155.8h995.18l-490-423.48,312-746.33L1171.45,746.62,1117.88,727h0l-73.05-233.56L218.16,1ZM1779.77,42.85Z"/><path class="cls-2" d="M546.72,695.46h0L534.22,689,456.89,648.6,421,656.25h0L384.52,664l-2.38,1.8L0,953.58,412.53,775.22l36.73-15.88,72.66-31.42,38.5-16.65ZM292,783.74,401.52,701.3l49.63-10.58L476.54,704Z"/><path class="cls-2" d="M1269,781.43l-97.52-35.81L1117.88,726l-47.36-17.4L932.11,657.72l-6.73,13.5-64.88,130L851.14,820l-20,40.14-51.7,103.65h0l-19.34,38.75-46.36,92.93-4.93,9.89L704,1115v39.63l21.83-12.8L770,1115.86l3.21-1.88,291.53-171.05h0L1111,915.78l161-94.46,36.73-21.55,3.9-2.29ZM772,1068.34,877,857.73l.83-1.65L951.93,707.6,1143.49,778l29.69,10.91,46.2,17Z"/><path class="cls-2" d="M1467.74,788.18l-20.83-18-139,8.79-3.85.25L1269,781.43l-9,.57-20.76,12.18-19.87,11.66L772,1068.34l-50.46,29.6-12.73,7.47L704,1115v18.47l21.83,8.36,18.17,7,154.36,59.11,9.94,3.81H1957.75Zm-552,383.48L770,1115.86l3.21-1.88,291.53-171.05h0L1111,915.78l161-94.46,161.1-10.18,383.49,331.42,33.67,29.1Z"/><path class="cls-2" d="M959.3,1171.66,773.23,1114l-51.72-16-7.8-2.42-4.93,9.89L704,1115l6,253.71,252.55-157,38.53-27ZM744,1316.19V1146.8l167.4,51.9-13,9.15Z"/><path class="cls-2" d="M1171.45,745.62l-28,32.34.53-.3,29.16,11.21,66.07,5.31,69.51,5.59,149.12,12,9.86-23.58,312-746.33Zm260.71,23.94-111.74-9-45.9-3.69-56-4.5L1499,427.82l0-.06,147.19-170.29-27.55,65.89Z"/><rect class="cls-2" x="1126.24" y="439.66" width="750.55" height="40" transform="translate(275.6 1440.97) rotate(-55.7)"/><rect class="cls-2" x="1463.19" y="614.37" width="40" height="884.05" transform="translate(23.62 2145.2) rotate(-72.18)"/><polygon class="cls-2" points="1080.87 741.63 1011.21 518.93 279.88 83.32 423.1 664.88 384.26 674.44 218.16 0 1044.83 492.39 1119.05 729.69 1080.87 741.63"/><polygon class="cls-2" points="710.3 1369.21 619.13 1283.22 410.49 770.19 447.55 755.13 652.91 1260.09 737.74 1340.11 710.3 1369.21"/><polygon class="cls-2" points="847.63 815.32 820.12 845.36 795.85 812.63 292.24 133.51 232.96 53.57 265.08 29.75 324.53 109.91 823.36 782.59 847.63 815.32"/><polygon class="cls-2" points="878.36 856.75 877.03 857.73 846.23 880.57 831.11 860.18 851.14 820.04 877.86 856.08 878.36 856.75"/><polygon class="cls-2" points="956.77 696.17 860.5 801.27 847.63 815.32 820.12 845.36 746.43 925.8 738.77 934.17 709.27 907.15 720.05 895.38 795.85 812.63 823.36 782.59 925.38 671.22 927.27 669.15 956.77 696.17"/><polygon class="cls-2" points="791.74 978.06 761.52 1004.26 760.07 1002.59 521.92 727.92 507.91 711.76 534.22 688.95 538.13 685.56 546.7 695.45 546.72 695.46 560.42 711.27 720.05 895.38 746.43 925.8 779.41 963.83 779.41 963.84 791.74 978.06"/></g></g></svg>