<svg xmlns="http://www.w3.org/2000/svg" viewBox="0 0 568.67 438"><defs><style>.cls-1,.cls-4{fill:#71d5bb;}.cls-2,.cls-3{fill:#55a08c;}.cls-3,.cls-4,.cls-5{stroke:#71d5bb;stroke-linecap:round;stroke-linejoin:round;stroke-width:4px;}.cls-5{fill:none;}</style></defs><title>Asset 2</title><g id="Layer_2" data-name="Layer 2"><g id="Layer_2-2" data-name="Layer 2"><path class="cls-1" d="M160.27,436,2.21,21.1l-.15-.21c.84-1.21,8.84-7.6,84.36-13C139.72,4.1,210,2,284.33,2S429,4.1,482.25,7.9c75.5,5.39,83.51,11.77,84.36,13a2.05,2.05,0,0,1-.26.26l-.36.33-.1.25-.39.51L407.88,436Z"/><path class="cls-2" d="M284.33,4c72.38,0,141.31,2,194.08,5.64,64.26,4.42,81,9.61,85.3,11.68l-.19.48L406.5,434H161.65L4.52,21.55c3.5-1.9,19-7.32,85.74-11.91C143,6,212,4,284.33,4m0-4C127.3,0,0,9.36,0,20.91a1.58,1.58,0,0,0,.09.52H0a0,0,0,0,0,0,0l.25.32a2.38,2.38,0,0,0,.18.3L158.89,438H409.25l158-414.77.39-.5,0-.09a2.42,2.42,0,0,0,1-1.73C568.67,9.36,441.37,0,284.33,0Z"/><polygon class="cls-3" points="555.83 29.5 403.83 428.5 164.33 428.5 12.33 29.5 555.83 29.5"/><path class="cls-1" d="M284.33,338.38C173.43,230.34,36.87,58,16.44,32H552.23c-10.09,12.84-46.84,59.34-95.41,117C390.47,227.81,332.45,291.51,284.33,338.38Z"/><path class="cls-1" d="M548.11,34C535.3,50.26,500.4,94.16,455.29,147.73c-65.67,78-123.16,141.16-171,187.86C177.61,231.31,47.79,68.5,20.56,34H548.11m7.72-4H12.33a0,0,0,0,0,0,0c1.63,2.08,151.28,193.92,272,311.15,115.7-112.37,258-293.28,271-309.93l.47-1.24Z"/><ellipse class="cls-4" cx="284.33" cy="29.5" rx="272" ry="20"/><path class="cls-5" d="M12.33,29.5s293,376,391,399"/><path class="cls-5" d="M556.33,29.5s-293,376-391,399"/><path class="cls-2" d="M284.83,12c69.14,0,135,1.91,185.44,5.38C526.83,21.27,545,25.77,550.73,28c-5.74,2.23-23.9,6.73-80.46,10.62C419.82,42.09,354,44,284.83,44s-135-1.91-185.43-5.38C42.83,34.73,24.68,30.23,18.94,28c5.74-2.23,23.89-6.73,80.46-10.62C149.85,13.91,215.7,12,284.83,12m0-4c-150.22,0-272,9-272,20s121.78,20,272,20,272-9,272-20S435.06,8,284.83,8Z"/></g></g></svg>